<?xml version="1.0" encoding="utf-8"?>
<!-- Generator: Adobe Illustrator 14.0.0, SVG Export Plug-In . SVG Version: 6.00 Build 43363)  -->
<!DOCTYPE svg PUBLIC "-//W3C//DTD SVG 1.1//EN" "http://www.w3.org/Graphics/SVG/1.1/DTD/svg11.dtd">
<svg version="1.1" id="Layer_1" xmlns="http://www.w3.org/2000/svg" xmlns:xlink="http://www.w3.org/1999/xlink" x="0px" y="0px"
	 width="223.762px" height="223.76px" viewBox="0 0 223.762 223.76" enable-background="new 0 0 223.762 223.76"
	 xml:space="preserve">
<g>
	<path fill="#E8E1DD" d="M3.348,111.88L111.879,3.35L220.41,111.88L111.879,220.407L3.348,111.88z M111.879,0l-0.837,0.837
		L0.836,111.043L0,111.88l0.836,0.84l110.207,110.204l0.838,0.836l0.837-0.836l110.207-110.208l0.837-0.836l-0.837-0.839
		L112.718,0.837L111.879,0z"/>
	<path fill="#302F2F" d="M3.348,111.88L111.879,3.35L220.41,111.88L111.879,220.407L3.348,111.88z M111.879,0l-0.837,0.837
		L0.836,111.043L0,111.88l0.836,0.84l110.207,110.204l0.838,0.836l0.837-0.836l110.207-110.208l0.837-0.836l-0.837-0.839
		L112.718,0.837L111.879,0z"/>
	<path fill="#302F2F" d="M111.122,212.338L11.42,112.639l-0.757-0.758l0.757-0.758l99.702-99.702l0.759-0.758l0.757,0.758l99.7,99.7
		l0.76,0.757l-0.76,0.758l-99.7,99.702l-0.757,0.76L111.122,212.338z M53.55,119.172c-0.16,1.019,1.812,1.977,1.812,1.977
		C59.148,123.917,70.93,122,70.93,122c11.092,6.184,21.489,9.012,21.489,9.012c21.487,6.77,38.865,2.666,38.865,2.666
		c17.753-2.666,30.87-15.145,30.87-15.145c-0.641,0.535-3.892,1.333-3.892,1.333c1.226-0.854,1.332-4.321,1.332-4.321
		c-1.068,2.988-5.491,6.08-5.491,6.08c1.812-1.383,2.453-7.466,2.453-7.466c-0.747,2.935-5.491,6.934-5.491,6.934
		c2.397-3.198,2.344-9.277,2.344-9.277c-0.641,3.254-5.65,8.533-5.65,8.533c2.825-4.854,2.296-11.464,2.296-11.464
		c-1.711,6.61-5.709,10.928-5.709,10.928c4.054-7.622,1.812-12.264,1.812-12.264c-2.56,10.881-8.154,16.314-8.154,16.314
		c5.276-8.047,4.423-18.016,4.423-18.016c-1.122,5.968-2.985,6.659-2.985,6.659c1.226-6.235-1.068-9.063-1.068-9.063
		c1.76,15.678-9.701,23.727-9.701,23.727c-12.85,9.545-26.818,1.707-26.818,1.707c-16.53-9.809-12.582-27.192-12.582-27.192
		c-6.45,10.772,3.894,23.035,3.894,23.035c-8.104-4.318-8.427-19.354-8.427-19.354c-2.665,6.078,1.014,13.806,1.014,13.806
		c-5.438-2.879-4.851-12.688-4.851-12.688c-3.093,5.491,0.427,13.438,0.427,13.438c-2.827-1.492-4.854-10.291-4.854-10.291
		c-2.985,9.382,3.467,13.06,3.467,13.06c-5.866-1.009-7.675-11.246-7.675-11.246c-1.28,2.773,0.957,9.487,0.957,9.487
		c-2.027-0.53-4.373-5.328-4.373-5.328c-0.744,1.652,0.534,5.647,0.534,5.647c-1.278-0.478-4.158-5.49-4.158-5.49
		c0,3.252-2.134,4.641-2.134,4.641c0.533-3.201-1.491-5.708-1.491-5.708c-0.32,5.441-2.667,5.6-2.667,5.6s-0.383,0.411-0.319-0.051
		c0.651-4.772-1.974-3.361-1.974-3.361c-2.932,1.067,0.639,3.948,0.639,3.948s1.067,0.048-0.264,0
		C55.685,120.773,53.55,119.172,53.55,119.172 M135.21,106.484c0.006,0.085-0.005,0.157,0,0.241
		C135.213,106.574,135.21,106.484,135.21,106.484 M100.308,123.759c0,0,7.287,7.642,19.833,4.053c0,0,15.897-3.813,15.068-21.086
		c-0.026,2.168-0.861,18.73-20.185,20.625c0,0-9.99,1.632-18.201-9.777c0,0-5.687-10.201-0.604-17.95
		C96.221,99.623,86.409,110.607,100.308,123.759 M123.73,99.094c6.791,5.897,1.071,17.237,1.071,17.237
		C134.109,106.061,123.73,99.094,123.73,99.094 M177.757,110.963c-3.481,4.16-9.883,1.872-9.883,1.872
		c-5.226-1.004-15.065-10.119-15.065-10.119c-13.617-11.728-23.638-12.758-23.638-12.758c-21.361-4.127-33.59,1.99-33.59,1.99
		c11.269-10.202,38.242-2.524,38.242-2.524c13.33,3.555,22.288,11.518,22.288,11.518c8.909,8.366,10.167,6.771,10.167,6.771
		c-2.348-0.52-7.501-7.091-7.501-7.091c-2.805-3.342-11.124-7.75-11.124-7.75c-9.704-6.613-31.562-7.536-31.562-7.536
		c-18.022-1.1-23.233,3.589-23.233,3.589c-0.339,0.321-21.312,12.412-21.312,12.412c-2.878,1.895-20.205,8.692-20.205,8.692
		c-10.132,5.278-0.323,12.718-0.323,12.718c2.56,2.721,18.981,4.423,18.981,4.423c10.716,7.839,30.763,11.891,30.763,11.891
		c8.318,2.958,31.233,0.452,31.233,0.452c16.086-1.199,35.466-16.604,35.466-16.604c4.824-4.027,7.384-2,7.384-2
		c-2.427-4.826-13.514,5.035-13.514,5.035c-3.12,2.188-15.01,8.212-15.01,8.212c-10.743,4.077-10.85,2.666-10.85,2.666
		c5.462-0.723,10.236-3.814,10.236-3.814c3.705-2.772,22.069-13.141,22.069-13.141c-1.303-0.157-25.777,13.225-25.777,13.225
		c-8.819,4.795-29.402,4.396-29.402,4.396c-13.089-0.397-25.216-5.221-25.216-5.221c-6.906-1.604-16.184-7.281-16.184-7.281
		l-12.155-1.173c-9.145-2.237-9.278-5.09-9.278-5.09c-1.625-6.16,4.32-8.131,4.32-8.131c6.291-1.203,13.995-5.147,13.995-5.147
		l16.953-8.425l-11.702,8.081c-5.517,4.103-11.783,5.195-11.783,5.195c-6.718,0.746-8.823,5.252-8.823,5.252
		c5.698-4.267,14.496-5.119,14.496-5.119c2.272-0.244,5.969-2.591,5.969-2.591l19.124-10.7c14.679-9.24,37.959-4.302,37.959-4.302
		c9.029,1.708,23.207,13.686,23.207,13.686c7.892,8.602,16.746,9.133,16.746,9.133C175.45,115.904,177.757,110.963,177.757,110.963
		 M108.303,103.537c0.107-2.21-2.485-3.556-2.485-3.556c-5.544-1.137-5.974,3.412-5.974,3.412c0.145,2.24,6.294,5.012,6.294,5.012
		c4.476,0.639,3.873-2.771,3.873-2.771c-0.425,1.455-1.708,0.777-1.708,0.777C105.605,105.172,108.303,103.537,108.303,103.537
		 M108.875,119.459c-6.434-3.234-7.147-10.057-7.147-10.057c-1.918,6.646,5.37,10.339,5.37,10.339
		c8.101,4.625,13.289-0.282,13.289-0.282C110.581,122.481,108.875,119.459,108.875,119.459 M103.79,121.725
		c8.887,6.214,16.987,2.105,16.987,2.105c15.57-8.069,10.382-19.547,10.382-19.547c1.066,6.751-3.588,12.44-3.588,12.44
		c-4.423,7.854-12.799,7.177-12.799,7.177c-13.437,0.331-16.528-12.901-16.528-12.901C99.029,119.955,103.79,121.725,103.79,121.725
		"/>
</g>
</svg>
