<svg xmlns="http://www.w3.org/2000/svg" viewBox="0 0 274.5 286.9"><g fill="#F1F1F1"><path d="M57.5 82.2l79.8-79.7L217 82.2 137.2 162 57.5 82.2zM137.2 0l-.6.6-81 81-.6.6.6.6 81 81 .6.6.6-.6 81-81 .6-.6-.6-.6-81-81-.6-.6z"/><path d="M57.5 82.2l79.8-79.7L217 82.2 137.2 162 57.5 82.2zM137.2 0l-.6.6-81 81-.6.6.6.6 81 81 .6.6.6-.6 81-81 .6-.6-.6-.6-81-81-.6-.6z"/><path d="M65.1 82.2l72.1 72.1 72.1-72.1-72.1-72.1-72.1 72.1zm71.6 73.8L63.4 82.8l-.6-.6.6-.6 73.3-73.3.6-.6.6.6 73.3 73.3.6.6-.6.6-73.4 73.2-.6.6-.5-.6z"/><path d="M94.4 87.6c-.1.7 1.3 1.5 1.3 1.5 2.8 2 11.4.6 11.4.6 8.2 4.5 15.8 6.6 15.8 6.6 15.8 5 28.6 2 28.6 2 13-2 22.7-11.1 22.7-11.1-.5.4-2.9 1-2.9 1 .9-.6 1-3.2 1-3.2-.8 2.2-4 4.5-4 4.5 1.3-1 1.8-5.5 1.8-5.5-.5 2.2-4 5.1-4 5.1 1.8-2.3 1.7-6.8 1.7-6.8-.5 2.4-4.2 6.3-4.2 6.3 2.1-3.6 1.7-8.4 1.7-8.4-1.3 4.9-4.2 8-4.2 8 3-5.6 1.3-9 1.3-9-1.9 8-6 12-6 12 3.9-5.9 3.3-13.2 3.3-13.2-.8 4.4-2.2 4.9-2.2 4.9.9-4.6-.8-6.7-.8-6.7 1.3 11.5-7.1 17.4-7.1 17.4-9.4 7-19.7 1.3-19.7 1.3-12.1-7.2-9.2-20-9.2-20-4.7 7.9 2.9 16.9 2.9 16.9-6-3.2-6.2-14.2-6.2-14.2-2 4.5.7 10.1.7 10.1-4-2.1-3.6-9.3-3.6-9.3-2.3 4 .3 9.9.3 9.9-2.1-1.1-3.6-7.6-3.6-7.6-2.2 6.9 2.5 9.6 2.5 9.6-4.3-.7-5.6-8.3-5.6-8.3-.9 2 .7 7 .7 7-1.5-.4-3.2-3.9-3.2-3.9-.5 1.2.4 4.1.4 4.1-.9-.4-3.1-4-3.1-4 0 2.4-1.6 3.4-1.6 3.4.4-2.4-1.1-4.2-1.1-4.2-.2 4-2 4.1-2 4.1s-.3.3-.2 0c.5-3.5-1.5-2.5-1.5-2.5-2.2.8.5 2.9.5 2.9h-.2c-.9-.2-2.4-1.3-2.4-1.3M154.4 78.2v0"/><path d="M128.7 90.9s5.4 5.6 14.6 3c0 0 11.7-2.8 11.1-15.5 0 1.6-.6 13.8-14.8 15.2 0 0-7.3 1.2-13.4-7.2 0 0-4.2-7.5-.4-13.2-.1 0-7.3 8.1 2.9 17.7"/><path d="M145.9 72.8c5 4.3.8 12.7.8 12.7 6.9-7.6-.8-12.7-.8-12.7"/><path d="M185.6 81.5c-2.6 3.1-7.3 1.4-7.3 1.4-3.8-.7-11.1-7.4-11.1-7.4-10-8.6-17.4-9.4-17.4-9.4-15.7-3-24.7 1.5-24.7 1.5 8.3-7.5 28.1-1.9 28.1-1.9 9.8 2.6 16.4 8.5 16.4 8.5 6.5 6.1 7.5 5 7.5 5-1.7-.4-5.5-5.2-5.5-5.2-2.1-2.5-8.2-5.7-8.2-5.7-7.1-4.9-23.2-5.5-23.2-5.5-13.2-.8-17.1 2.6-17.1 2.6-.2.2-15.7 9.1-15.7 9.1-2.1 1.4-14.8 6.4-14.8 6.4-7.4 3.9-.2 9.3-.2 9.3 1.9 2 13.9 3.3 13.9 3.3 7.9 5.8 22.6 8.7 22.6 8.7 6.1 2.2 23 .3 23 .3 11.8-.9 26.1-12.2 26.1-12.2 3.5-3 5.4-1.5 5.4-1.5-1.8-3.5-9.9 3.7-9.9 3.7-2.3 1.6-11 6-11 6-7.9 3-8 2-8 2 4-.5 7.5-2.8 7.5-2.8 2.7-2 16.2-9.7 16.2-9.7-1-.1-18.9 9.7-18.9 9.7-6.5 3.5-21.6 3.2-21.6 3.2-9.6-.3-18.5-3.8-18.5-3.8-5.1-1.2-11.9-5.4-11.9-5.4l-8.9-.7c-6.7-1.6-6.8-3.7-6.8-3.7-1.2-4.5 3.2-6 3.2-6 4.6-.9 10.3-3.8 10.3-3.8l12.5-6.2-8.6 5.9c-4.1 3-8.7 3.8-8.7 3.8-4.9.5-6.5 3.9-6.5 3.9 4.2-3.1 10.7-3.8 10.7-3.8 1.7-.2 4.4-1.9 4.4-1.9l14.1-7.9c10.8-6.8 27.9-3.2 27.9-3.2 6.6 1.3 17.1 10.1 17.1 10.1 5.8 6.3 12.3 6.7 12.3 6.7 3.7.3 5.3-3.4 5.3-3.4"/><path d="M134.6 76.1c.1-1.6-1.8-2.6-1.8-2.6-4.1-.8-4.4 2.5-4.4 2.5.1 1.6 4.6 3.7 4.6 3.7 3.3.5 2.8-2 2.8-2-.3 1.1-1.3.6-1.3.6-1.9-1 .1-2.2.1-2.2M135 87.8c-4.7-2.4-5.3-7.4-5.3-7.4-1.4 4.9 3.9 7.6 3.9 7.6 6 3.4 9.8-.2 9.8-.2-7.1 2.2-8.4 0-8.4 0"/><path d="M131.3 89.4c6.5 4.6 12.5 1.5 12.5 1.5 11.4-5.9 7.6-14.4 7.6-14.4.8 5-2.6 9.1-2.6 9.1-3.3 5.8-9.4 5.3-9.4 5.3-9.9.2-12.1-9.5-12.1-9.5.5 6.7 4 8 4 8"/><path d="M7.4 217.8c6.5 12.5 9.9 19.1 10.2 19.9l8.7-19.8 6.8-.3v.8c-.3 0-.8.1-1.2.2-.5.1-1 .2-1.6.5-.6.2-.9.5-.9.8v20.3l.3.5c.2.4.5.7.9.9.4.2.9.3 1.5.4l.9-.1v.7c-1.5-.1-3.3-.1-5.3-.1-2.3 0-4 0-5.2.1v-.6c.1 0 .4 0 .9-.1.6-.1 1-.2 1.3-.3.7-.3 1.1-.7 1.1-1.3v-17.8L16.6 243H16L5.5 222.8v16.9c0 .5 0 .8.1 1 .1.2.2.3.4.4.2.1.4.2.5.4.6.2 1.3.3 2.1.4h.2v.7c-1.3-.1-2.7-.1-4.2-.1-1.7 0-3.1.1-4.4.2v-.7l1.6-.2c1-.2 1.7-.4 2-.7.2-.2.3-.4.4-.6l.1-.4c.1 0 .1-6.2.1-18.5-.1-.8-.7-1.5-1.7-2s-1.7-.8-2.7-.9v-.7l7.4-.2zM51.2 219.6v13.5c0 3.6 0 6.1.1 7.6 0 .8 1 1.1 3 1.1v.6h-3.1c-2.8 0-5.2.1-7.2.2v-.6c1.9 0 3-.3 3.1-.9.1-.8.2-8 .2-21.6 0-.3-.5-.5-1.4-.7l-1.5-.3v-.6c1.2.1 2.8.2 4.8.2s3.6-.1 4.7-.2v.8c-1.8.1-2.7.4-2.7.9zM90.2 218.7c-.4 0-.8.1-1.2.1-.5.1-1 .2-1.5.4s-.8.4-.8.7c-.1.9-.1 3.3-.1 7.2l.1 15.7h-1.4l-7.5-10.3c-5-6.8-7.6-10.4-7.9-10.7v5.5c0 1.8 0 3.5.1 5.1.1 1.6.1 3.6.1 6.1v1.6c0 1.1.5 1.6 1.4 1.6 1.5 0 2.3 0 2.3.1v.7c-1.3-.1-2.7-.1-4.4-.1-1.8 0-3.3.1-4.6.2v-.6h.2c2.1 0 3.3-.3 3.4-.9.1-7.8.2-12.4.2-13.7 0-2 0-4.4-.1-7-.1-.3-.7-.7-1.8-1.2l-1.8-.7v-.7h7.3c1.5 2.2 4.1 5.5 7.6 10.1l5.4 6.9v-14.9c0-.4-.4-.7-1-.9-.6-.2-1.4-.3-2.2-.3h-.6l-.1-.9c1.1.1 2.5.2 4.1.2 1.5 0 3.1-.1 4.8-.2v.9zM122.8 230.9c0 1.4-.3 2.8-.8 4.1-.5 1.4-1.3 2.6-2.3 3.8-1 1.2-2.3 2.1-4 2.8-1.7.7-3.6 1-5.7 1H99.8v-.6c2.1-.2 3.3-.8 3.5-1.8v-19.8c0-.3-.1-.6-.3-.9-.2-.2-.4-.4-.8-.5-.4-.1-.7-.2-.8-.2-.2 0-.5-.1-1-.1v-.7h10.8c1.3 0 2.6.2 3.9.7 1.3.5 2.5 1.2 3.8 2.1 1.2 1 2.2 2.3 3 4.1.5 1.5.9 3.6.9 6zm-4.3.2v-.2c0-2.1-.1-3.8-.4-5.2-.3-1.4-.7-2.6-1.4-3.7s-1.6-1.9-2.8-2.4c-1.2-.5-2.7-.8-4.5-.8-.8 0-1.6 0-2.5.1v20.9c0 .5.2 1 .6 1.4.4.4.9.6 1.6.6 1.9 0 3.5-.2 4.7-.6 1.2-.4 2.2-1.1 2.8-2 .7-.9 1.1-2 1.4-3.3.4-1.2.5-2.8.5-4.8zM135.3 222.4c-.8 0-1.4-.3-2-.9-.5-.6-.8-1.3-.8-2.1 0-.9.3-1.6.9-2.1.6-.5 1.3-.8 2-.8s1.4.3 2.1.9c.7.6 1 1.4 1 2.4 0 1.5-.5 2.9-1.5 4.1-1 1.2-2 1.8-3.1 1.9l-.3-.6c.6-.2 1.3-.7 2.1-1.4s1.2-1.4 1.2-2c-.6.4-1.1.6-1.6.6zM157.4 216.8c2 0 3.7.7 5.2 2.2.7-.1 1.2-.6 1.6-1.7h.6l-.1 7.6h-.7c-.1-.9-.2-1.8-.3-2.6-.1-.8-.4-1.5-.9-2.1-1.2-1.8-3-2.7-5.3-2.7-1.2 0-2.3.5-3.1 1.4-.9 1-1.3 1.9-1.3 3s.5 2.1 1.6 3.1c1 1 2.4 1.8 4.2 2.4 2.4.9 4.3 2 5.8 3.4s2.2 3 2.2 4.7c0 2.2-.7 4-2.2 5.4-1.5 1.4-3.9 2.1-7.3 2.1-.7 0-1.4-.1-2.1-.2-.7-.2-1.2-.4-1.7-.6-.4-.2-.9-.5-1.3-.7-.4-.2-.7-.5-.9-.6-.5.2-1 .8-1.5 1.6h-.8l.1-7.2h.8c.4 2.2 1.2 3.8 2.3 5 1.1 1.2 2.7 1.8 4.9 1.8 3.7 0 5.5-1.8 5.5-5.3 0-2.3-1.9-4.1-5.8-5.5-2.1-.7-3.8-1.8-5-3.1-1.2-1.4-1.8-2.8-1.8-4.3-.4-4.7 2.2-7.1 7.3-7.1zM212.1 242.5h-18.3v-.6h1.1c1.3 0 2-.3 2.1-.9.2-1.4.4-6.5.4-15.2 0-3.8-.1-5.9-.2-6.3-.1-.3-.6-.5-1.5-.7l-1.4-.3v-.7c2.8.1 5.9.1 9.3.1 3.4 0 6.2 0 8.4-.1l.1 5.7h-.7c-.1-.7-.3-1.3-.6-1.9-.3-.6-.7-1.2-1.3-1.8-.6-.6-1.4-.9-2.2-.9h-6.2v10.7h5.8c1.2 0 1.9-1 2-3.1h.9v7.1h-.8c-.1-2-.9-3.1-2.2-3.1h-5.7v9.4c0 1.3.5 1.9 1.4 1.9h5.9c.7 0 1.3-.6 2-1.8.6-1.1 1-2.3 1.2-3.4h.9l-.4 5.9zM233 232.8c-1.8-4.2-4-8.1-6.7-11.9-.6-.8-1.2-1.4-1.8-1.7-.7-.3-1.4-.6-2.2-.7v-.6c1.2.1 3.1.2 5.5.2 2.6 0 4.4-.1 5.6-.2v.8c-1.5.1-2.3.4-2.5.7l-.3.9-.1.5c1.8 3.5 3.6 6.8 5.5 9.9 3.8-6.8 5.7-10.4 5.7-10.7 0-.4-.3-.6-.9-.8l-2.4-.6v-.6c1.2.1 2.6.2 4.1.2 1.5 0 2.9-.1 4.1-.2v.8c-1.1.1-2 .3-2.6.7-.2.2-.6.4-.9.9l-.6.6c-3.1 5.3-5 8.8-5.7 10.3 0 1 .1 4.3.2 10 0 .7 1.1 1 3.2 1v.7h-10.7v-.6h.4c1.9 0 2.9-.3 3-.9-.1-3.2 0-6.1.1-8.7zM274.1 242.5h-18.3v-.6h1.1c1.3 0 2-.3 2.1-.9.2-1.4.4-6.5.4-15.2 0-3.8-.1-5.9-.2-6.3-.1-.3-.6-.5-1.5-.7l-1.4-.3v-.7c2.8.1 5.9.1 9.3.1 3.4 0 6.2 0 8.4-.1l.1 5.7h-.7c-.1-.7-.3-1.3-.6-1.9-.3-.6-.7-1.2-1.3-1.8-.6-.6-1.4-.9-2.2-.9h-6.2v10.7h5.8c1.2 0 1.9-1 2-3.1h.9v7.1h-.8c-.1-2-.9-3.1-2.2-3.1h-5.7v9.4c0 1.3.5 1.9 1.4 1.9h5.9c.7 0 1.3-.6 2-1.8.6-1.1 1-2.3 1.2-3.4h.9l-.4 5.9z"/><path d="M44.6 260.3c2 0 3.7.7 5.2 2.2.7-.1 1.2-.6 1.6-1.7h.5l-.1 7.6H51c-.1-.9-.2-1.8-.3-2.6-.1-.8-.4-1.5-.9-2.1-1.2-1.8-3-2.7-5.3-2.7-1.2 0-2.3.5-3.1 1.4-.9 1-1.3 1.9-1.3 3s.5 2.1 1.6 3.1c1 1 2.4 1.8 4.2 2.4 2.4.9 4.3 2 5.8 3.4s2.2 3 2.2 4.7c0 2.2-.7 4-2.2 5.4-1.5 1.4-3.9 2.1-7.3 2.1-.7 0-1.4-.1-2.1-.2-.7-.2-1.2-.4-1.7-.6-.4-.2-.9-.5-1.3-.7-.4-.2-.7-.5-.9-.6-.5.2-1 .8-1.5 1.6H36l.1-7.2h.8c.4 2.2 1.2 3.8 2.3 5 1.1 1.2 2.7 1.8 4.9 1.8 3.7 0 5.5-1.8 5.5-5.3 0-2.3-1.9-4.1-5.8-5.5-2.1-.7-3.8-1.8-5-3.1-1.2-1.4-1.8-2.8-1.8-4.3 0-4.7 2.5-7.1 7.6-7.1zM78.3 260.4c.9 0 1.9.1 3 .3 1 .2 2.1.6 3.4 1.2 1.2.6 2.3 1.4 3.2 2.3.9.9 1.7 2.2 2.3 3.9.6 1.6.9 3.5.9 5.6 0 2-.4 3.9-1.2 5.5-.8 1.7-1.8 3-3.1 4s-2.7 1.8-4.2 2.4c-1.5.5-3 .8-4.4.8-4 0-7.3-1.1-10.1-3.4s-4.2-5.3-4.2-9c0-2.2.3-4.1.9-5.7.6-1.7 1.4-3 2.4-4s2.1-1.8 3.4-2.4c1.3-.6 2.6-1 3.9-1.3 1.2-.1 2.5-.2 3.8-.2zm0 25.3c2.5 0 4.5-1.1 6-3.4 1.6-2.2 2.3-5.1 2.3-8.6 0-4.1-.8-7.3-2.3-9.4-1.5-2.2-3.7-3.2-6.4-3.2-1.3 0-2.5.2-3.5.6-1 .4-2 1-3 1.8-.9.9-1.7 2.2-2.2 3.9-.5 1.7-.8 3.9-.8 6.4 0 .9.1 1.9.3 2.9.2 1 .5 2 1 3.1s1.1 2.1 1.8 2.9c.7.9 1.6 1.6 2.8 2.1 1.2.6 2.5.9 4 .9zM114.6 260.8c1.5 0 3 .2 4.3.7 1.4.5 2.3 1 2.7 1.5.3-.2.6-.4.7-.7.2-.2.3-.4.3-.6 0-.2.1-.6.2-1.1h1.3l-.1 8.1h-.8c-.3-2.1-1.3-3.8-2.7-5-1.5-1.2-3.5-1.8-6.2-1.8-2.6 0-4.5 1.1-5.8 3.2-1.3 2.1-2 5-2 8.6 0 8 2.8 12 8.4 12 1.3 0 2.4-.2 3.4-.5 1-.4 1.8-.9 2.5-1.6.7-.7 1.2-1.4 1.7-2.1.4-.7.8-1.6 1.3-2.7l.9.7c-2 4.9-5.3 7.4-9.8 7.4-4 0-7.2-1.1-9.8-3.4-2.5-2.3-3.8-5.4-3.8-9.5 0-2 .3-3.7.9-5.3.6-1.6 1.4-2.8 2.3-3.8.9-.9 2-1.7 3.2-2.4 1.2-.7 2.4-1.1 3.5-1.3 1.2-.3 2.3-.4 3.4-.4zM143 263v13.5c0 3.6 0 6.1.1 7.6 0 .8 1 1.1 3 1.1v.6H143c-2.8 0-5.2.1-7.2.2v-.6h.2c1.9 0 3-.3 3.1-.9.1-.8.2-8 .2-21.6 0-.3-.5-.5-1.4-.7l-1.5-.3v-.6c1.2.1 2.8.2 4.8.2s3.6-.1 4.7-.2v.8c-2 .2-2.9.5-2.9.9zM175.1 286h-18.3v-.6h1.1c1.3 0 2-.3 2.1-.9.2-1.4.4-6.5.4-15.2 0-3.8-.1-5.9-.2-6.3-.1-.3-.6-.5-1.5-.7l-1.4-.3v-.7c2.8.1 5.9.1 9.3.1 3.4 0 6.2 0 8.4-.1l.1 5.7h-.7c-.1-.7-.3-1.3-.6-1.9-.3-.6-.7-1.2-1.3-1.8-.6-.6-1.4-.9-2.2-.9h-6.2V273h5.8c1.2 0 1.9-1 2-3.1h.9v7.1h-.8c-.1-2-.9-3.1-2.2-3.1h-5.7v9.4c0 1.3.5 1.9 1.4 1.9h5.9c.7 0 1.3-.6 2-1.8.6-1.1 1-2.3 1.2-3.4h.9l-.4 6zM193.1 284.5c.6-.7.9-1.5.9-2.2v-20.1h-4.1c-.6 0-1.2.2-1.7.7-.5.5-.9 1.1-1.1 1.8-.3.7-.5 1.4-.6 2-.2.7-.3 1.3-.3 1.9h-.7l.2-7.3c2.9.1 6.7.1 11.2.1 4.3 0 7.6 0 9.9-.1l.1 7.3h-.8c-.2-4.2-1.3-6.3-3.3-6.3h-4.6v20.1c0 .9.3 1.7.7 2.2.4.5 1.5.7 3.2.7v.7H190v-.7h.4c1.4 0 2.3-.3 2.7-.8zM224.8 276.3c-1.8-4.2-4-8.1-6.7-11.9-.6-.8-1.2-1.4-1.8-1.7-.7-.3-1.4-.6-2.2-.7v-.6c1.2.1 3.1.2 5.5.2 2.6 0 4.4-.1 5.6-.2v.8c-1.5.1-2.3.4-2.5.7l-.3.9-.1.5c1.8 3.5 3.6 6.8 5.5 9.9 3.8-6.8 5.7-10.4 5.7-10.7 0-.4-.3-.6-.9-.8l-2.4-.6v-.6c1.2.1 2.6.2 4.1.2 1.5 0 2.9-.1 4.1-.2v.8c-1.1.1-2 .3-2.6.7-.2.2-.6.4-.9.9l-.6.6c-3.1 5.3-5 8.8-5.7 10.3 0 1 .1 4.3.2 10 0 .7 1.1 1 3.2 1v.7h-10.7v-.6h.4c1.9 0 2.9-.3 3-.9 0-3.3.1-6.1.1-8.7z"/></g></svg>